<?xml version="1.0" encoding="UTF-8" standalone="no"?>
<!DOCTYPE svg PUBLIC "-//W3C//DTD SVG 1.1//EN" "http://www.w3.org/Graphics/SVG/1.1/DTD/svg11.dtd">
<svg version="1.1" xmlns="http://www.w3.org/2000/svg" xmlns:xlink="http://www.w3.org/1999/xlink" preserveAspectRatio="xMidYMid meet" viewBox="0 0 640 640" width="640" height="640"><defs><path d="M635.88 320C635.88 493.53 494.34 634.41 320 634.41C145.66 634.41 4.12 493.53 4.12 320C4.12 146.47 145.66 5.59 320 5.59C494.34 5.59 635.88 146.47 635.88 320Z" id="c1FETFwpjS"></path><linearGradient id="gradientb6ktvzpvCw" gradientUnits="userSpaceOnUse" x1="66.15" y1="510.93" x2="591.12" y2="170.3"><stop style="stop-color: #1a1b26;stop-opacity: 1" offset="0%"></stop><stop style="stop-color: #3a3d4e;stop-opacity: 1" offset="68.83855477039411%"></stop><stop style="stop-color: #65697d;stop-opacity: 1" offset="100%"></stop></linearGradient><path d="M201.98 194.76C200.98 194.83 199.87 194.94 199.48 194.99C199.12 195.03 198.3 195.15 197.67 195.22C196.76 195.33 193.58 195.89 191.42 196.35C184.88 197.68 175.36 201.48 169.16 205.21C166.59 206.77 162.71 209.37 162.34 209.8C162.28 209.87 161.87 210.18 161.43 210.48C160.07 211.4 156.21 214.8 153.87 217.15C151.58 219.43 149.28 222.03 147.19 224.72C145.97 226.3 142.35 231.62 142.35 231.87C142.35 231.93 142.15 232.27 141.9 232.64C140.63 234.42 137.33 241.41 135.9 245.41C134.22 250.14 132.52 257.28 132 261.92C131.9 262.66 131.79 263.57 131.75 263.95C131.56 265.31 131.52 275.75 131.68 277.52C132.59 286.58 134.52 294.25 137.88 301.82C139.36 305.12 141.22 308.74 142.49 310.71C143.03 311.55 143.49 312.29 143.49 312.34C143.49 312.43 145.19 314.98 145.69 315.62C145.83 315.8 146.49 316.66 147.15 317.54C147.81 318.4 148.4 319.17 148.46 319.23C148.53 319.3 149.05 319.91 149.62 320.59C151.8 323.28 155.37 326.83 158.94 329.88C169.27 338.7 183.9 345.28 197.1 347.04C198.17 347.18 199.28 347.34 199.6 347.38C202.85 347.95 214.7 347.93 217.63 347.36C217.88 347.32 218.57 347.23 219.13 347.16C226.49 346.28 235.81 343.4 242.69 339.92C242.85 339.84 243.67 339.42 245.14 338.68C245.42 339.04 245.57 339.25 245.6 339.29C245.85 339.63 246.62 340.71 247.32 341.71C248.01 342.73 251.07 347.09 254.12 351.45C257.16 355.79 260.45 360.57 261.45 362.04C261.58 362.21 262.19 363.09 263.29 364.68C265.06 364.68 266.05 364.68 266.25 364.68C267.88 364.68 272.42 364.7 276.33 364.73C280.24 364.75 283.49 364.7 283.56 364.61C283.62 364.54 282.83 363.23 281.76 361.7C280.69 360.16 279.33 358.19 278.74 357.31C274.79 351.61 271.99 347.56 269.11 343.43C267.29 340.83 264.79 337.21 263.54 335.4C262.29 333.57 260.79 331.42 260.23 330.58C260.16 330.48 259.81 329.98 259.18 329.07C261.12 327.17 262.19 326.11 262.41 325.9C268.63 319.82 272.42 314.73 276.9 306.57C277.81 304.9 280.47 299.02 280.47 298.66C280.47 298.52 280.67 298 280.92 297.46C281.83 295.49 283.85 288.03 284.42 284.59C285.51 277.95 285.83 271.73 285.4 265.76C285.26 263.79 285.12 262.68 284.67 259.38C283.94 253.96 281.74 246.43 279.22 240.64C276.45 234.33 272.9 228.52 268.49 223.03C266.13 220.06 260.75 214.64 257.82 212.22C256.05 210.77 250.8 207 249.23 206.02C246.44 204.3 241.55 201.77 239.01 200.71C234.56 198.86 232.49 198.15 228.22 197C225.33 196.21 220.54 195.33 217.43 194.99C216.68 194.9 215.7 194.79 215.27 194.72C214.45 194.6 203.98 194.45 203.87 194.54C203.82 194.58 202.98 194.67 201.98 194.76ZM216.52 208.78C221.5 209.3 227.22 210.79 232.76 213.08C235.01 213.98 239.33 216.06 239.58 216.33C239.65 216.4 240.05 216.67 240.49 216.9C245.37 219.57 252.28 225.31 256.55 230.26C262.84 237.54 267.43 246.41 269.79 255.7C271.15 261.1 271.65 264.99 271.7 270.64C271.77 276.39 271.22 281.02 269.79 286.67C267.02 297.69 261.23 307.7 252.96 315.86C244.64 324.07 234.49 329.68 222.99 332.46C221.68 332.75 220.29 333.07 219.93 333.12C219.54 333.16 218.88 333.25 218.45 333.34C214.48 334.02 207.18 334.27 202.76 333.86C199.8 333.59 195.74 332.89 192.69 332.12C186.17 330.45 179.36 327.42 173.7 323.64C172.02 322.51 170.43 321.43 170.18 321.22C165.07 317.06 162.32 314.4 159.1 310.44C155.69 306.26 151.87 299.7 149.78 294.48C148.99 292.46 147.44 287.81 147.26 286.83C147.21 286.56 147.06 285.93 146.94 285.43C146.56 284.03 145.94 280.43 145.6 277.63C145.37 275.75 145.37 267.18 145.58 264.97C146.33 257.46 148.87 248.87 152.19 242.58C156.64 234.13 162.3 227.32 169.5 221.69C171.38 220.2 176.04 217.03 176.31 217.03C176.4 217.03 176.75 216.85 177.06 216.6C178.06 215.9 182.52 213.76 184.95 212.78C189.53 210.97 195.17 209.44 198.83 208.99C199.35 208.94 200.01 208.83 200.28 208.78C200.57 208.74 201.69 208.62 202.76 208.53C203.82 208.44 204.75 208.35 204.78 208.31C204.91 208.22 213.95 208.4 214.59 208.53C214.91 208.58 215.77 208.69 216.52 208.78ZM425.28 194.74C422.05 194.99 420.78 195.15 418.35 195.6C415.15 196.19 414.33 196.35 412.45 196.8C407.83 197.91 401.47 200.3 396.54 202.81C389.43 206.41 383.19 210.91 377.42 216.58C374.99 218.98 373.78 220.29 370.9 223.7C368.44 226.62 364.17 233.45 362.02 237.9C360.86 240.32 358.7 245.5 358.52 246.32C358.5 246.43 358.15 247.56 357.75 248.8C356.59 252.56 355.43 257.73 355.07 260.9C354.97 261.71 354.88 262.62 354.84 262.93C354.32 266.8 354.34 276.77 354.84 279.57C354.88 279.82 355 280.62 355.07 281.36C355.25 282.92 356.2 287.94 356.7 289.95C357.13 291.67 358.79 296.96 359.18 297.87C359.34 298.23 359.86 299.52 360.34 300.69C361.31 303.14 363.74 307.97 365.15 310.28C365.67 311.12 366.11 311.91 366.11 312.02C366.11 312.13 366.2 312.22 366.31 312.22C366.42 312.22 366.6 312.43 366.67 312.68C366.74 312.93 366.95 313.26 367.08 313.4C367.24 313.56 367.65 314.15 368.04 314.71C370.19 317.99 373.51 321.9 377.21 325.59C377.4 325.78 378.36 326.73 380.08 328.44C379.19 329.72 378.7 330.44 378.6 330.58C375.85 334.61 369.4 343.92 368.38 345.37C367.24 346.98 364.79 350.5 360.38 356.88C358.75 359.23 356.75 362.15 355.93 363.32C355.11 364.5 353.57 366.74 352.5 368.3C351.43 369.86 350.36 371.4 350.14 371.69C349.77 372.16 341.62 383.97 334.51 394.3C333.35 395.97 331.89 398.05 331.28 398.94C330.67 399.79 329.49 401.54 328.62 402.78C327.76 404.02 326.85 405.33 326.58 405.72C326.31 406.08 324.63 408.5 322.85 411.1C321.06 413.68 319.56 415.85 319.49 415.89C319.42 415.96 318.77 415.15 318.04 414.08C317.31 413.02 316.02 411.17 315.18 409.95C314.31 408.75 313.52 407.6 313.4 407.41C313.27 407.23 311.54 404.72 309.54 401.87C307.54 399 305.84 396.52 305.75 396.34C305.66 396.15 305.5 395.88 305.39 395.77C305.16 395.52 301.77 390.61 298 385.14C296.59 383.09 295.37 381.41 295.28 381.39C294.91 381.34 275.01 381.3 275.01 381.34C275.01 381.41 277.76 385.41 279.67 388.08C281.74 391 283.01 392.85 283.31 393.33C283.44 393.53 283.65 393.87 283.81 394.05C284.1 394.44 286.42 397.76 290.69 403.91C292.12 405.99 293.41 407.82 293.57 407.98C293.73 408.14 294.03 408.57 294.25 408.95C294.48 409.34 297.73 414.04 301.48 419.38C309.02 430.16 311.22 433.33 313.09 436.02C313.79 437.01 314.95 438.68 315.7 439.75C318.52 443.77 319.31 445.02 319.15 445.26C318.7 446.06 319.61 444.81 322.42 440.76C324.15 438.28 326.17 435.38 326.92 434.32C327.65 433.26 328.67 431.79 329.19 431.04C332.78 425.86 348.86 402.82 351.84 398.6C352.7 397.35 360.77 385.78 363.72 381.53C364.24 380.78 365.95 378.34 367.51 376.1C369.08 373.86 371.03 371.06 371.85 369.88C372.67 368.71 373.56 367.42 373.83 367.05C374.1 366.67 375.71 364.36 377.42 361.92C380.12 358.03 382.69 354.37 390.14 343.68C391.07 342.36 392.27 340.58 392.86 339.74C393.43 338.9 393.95 338.25 394.02 338.27C394.09 338.32 395.75 339.11 397.68 340.06C402.04 342.21 406.09 343.72 411.65 345.33C414.42 346.12 417.65 346.75 420.96 347.16C421.6 347.25 422.35 347.34 422.67 347.41C425.85 347.95 437.14 347.93 440.5 347.38C441.91 347.16 442.57 347.04 443.68 346.93C444.32 346.84 445 346.73 445.2 346.68C445.43 346.61 445.88 346.52 446.22 346.46C447.61 346.23 450.13 345.62 452.4 344.99C453.72 344.6 454.92 344.29 455.04 344.24C455.17 344.22 455.38 344.15 455.49 344.06C455.63 343.99 456.24 343.77 456.86 343.59C458.54 343.04 459.69 342.61 461.13 341.98C461.83 341.66 462.44 341.39 462.53 341.39C462.69 341.39 467.69 338.93 468.89 338.23C476.89 333.7 483.41 328.44 489.61 321.49C492.25 318.53 496.13 313.2 497.77 310.3C501.45 303.72 503.08 300.11 504.85 294.59C506.17 290.52 507.35 285.41 507.74 282.15C507.81 281.72 507.9 281.04 507.97 280.68C508.26 278.78 508.42 275.69 508.42 271.3C508.42 264.9 508.19 262.46 507.06 256.04C506.99 255.65 506.53 253.82 506.03 251.97C501.47 234.4 491 219.27 476.05 208.62C465.67 201.25 452.22 196.12 440.27 194.99C439.39 194.9 438.39 194.79 438 194.72C437.32 194.6 427.28 194.45 427.17 194.54C427.12 194.58 426.28 194.67 425.28 194.74ZM439.7 208.78C450.81 210.14 462.15 214.98 471.17 222.21C472.98 223.68 472.96 223.66 475.16 225.76C479.07 229.52 481.46 232.36 484.55 237.04C488.93 243.65 492.36 252.22 493.63 259.66C494.4 264.2 494.56 266.08 494.56 271.19C494.56 276.41 494.38 278.56 493.63 282.6C491.68 293.23 487.04 302.98 479.8 311.75C478.34 313.51 474.46 317.4 472.87 318.69C472.44 319.05 471.87 319.53 471.62 319.75C470.76 320.55 467.96 322.56 465.94 323.87C464.83 324.59 463.65 325.36 463.33 325.56C462.4 326.18 457.76 328.44 455.65 329.32C453.27 330.29 448.68 331.85 446.97 332.23C446.91 332.23 446.45 332.35 445.95 332.46C445.45 332.57 445 332.66 444.93 332.69C444.86 332.71 444.36 332.8 443.79 332.89C443.23 333 442.57 333.12 442.32 333.16C436.87 334.22 427.73 334.36 422.44 333.48C421.76 333.37 420.9 333.23 420.51 333.16C413.33 332.03 404.88 328.82 398.25 324.71C396.43 323.57 393.21 321.38 392.91 321.04C392.84 320.97 392.02 320.32 391.09 319.57C390.16 318.83 388.21 317.04 386.78 315.62C377.83 306.71 371.9 295.65 369.4 283.24C368.6 279.17 368.29 275.73 368.29 270.96C368.29 266.01 368.6 263.11 369.85 256.83C370.47 253.73 372.47 248.15 374.56 243.76C376.33 240.03 380.12 234.04 382.12 231.82C382.26 231.69 382.8 231.01 383.35 230.35C386.07 227.07 391.59 222.1 395.48 219.43C404.36 213.33 415.53 209.28 425.53 208.53C426.64 208.47 427.6 208.35 427.62 208.33C427.76 208.22 436.8 208.4 437.77 208.53C438.27 208.6 439.14 208.71 439.7 208.78Z" id="b4SwJKu1Jc"></path><linearGradient id="gradienta1tqxM7lOy" gradientUnits="userSpaceOnUse" x1="443.3" y1="183.48" x2="228.56" y2="422.04"><stop style="stop-color: #ffffff;stop-opacity: 1" offset="0%"></stop><stop style="stop-color: #b3b2b2;stop-opacity: 1" offset="100%"></stop></linearGradient></defs><g><g><g><use xlink:href="#c1FETFwpjS" opacity="1" fill="url(#gradientb6ktvzpvCw)"></use></g><g><use xlink:href="#b4SwJKu1Jc" opacity="1" fill="url(#gradienta1tqxM7lOy)"></use><g><use xlink:href="#b4SwJKu1Jc" opacity="1" fill-opacity="0" stroke="#000000" stroke-width="1" stroke-opacity="0"></use></g></g></g></g></svg>