<?xml version="1.0" encoding="UTF-8" standalone="no"?>
<!DOCTYPE svg PUBLIC "-//W3C//DTD SVG 1.1//EN" "http://www.w3.org/Graphics/SVG/1.1/DTD/svg11.dtd">
<svg version="1.1" xmlns="http://www.w3.org/2000/svg" xmlns:xlink="http://www.w3.org/1999/xlink" preserveAspectRatio="xMidYMid meet" viewBox="0 0 640 640" width="640" height="640"><defs><path d="M635.88 320C635.88 493.53 494.34 634.41 320 634.41C145.66 634.41 4.12 493.53 4.12 320C4.12 146.47 145.66 5.59 320 5.59C494.34 5.59 635.88 146.47 635.88 320Z" id="j20aOVj2QF"></path><linearGradient id="gradientc1jDw4kttE" gradientUnits="userSpaceOnUse" x1="66.15" y1="510.93" x2="591.12" y2="170.3"><stop style="stop-color: #1a1b26;stop-opacity: 1" offset="0%"></stop><stop style="stop-color: #3a3d4e;stop-opacity: 1" offset="68.83855477039411%"></stop><stop style="stop-color: #65697d;stop-opacity: 1" offset="100%"></stop></linearGradient><path d="M161.72 169.64C160.38 169.73 158.88 169.88 158.37 169.94C157.88 170.01 156.78 170.16 155.93 170.25C154.71 170.4 150.44 171.16 147.55 171.76C138.78 173.55 126.01 178.65 117.69 183.65C114.25 185.74 109.04 189.23 108.55 189.81C108.46 189.9 107.91 190.32 107.34 190.72C105.51 191.96 100.33 196.51 97.19 199.66C94.11 202.73 91.04 206.21 88.23 209.82C86.59 211.94 81.74 219.07 81.74 219.4C81.74 219.5 81.47 219.95 81.13 220.44C79.43 222.83 75.01 232.2 73.09 237.57C70.84 243.91 68.55 253.49 67.85 259.71C67.73 260.71 67.58 261.92 67.52 262.44C67.27 264.25 67.21 278.26 67.42 280.63C68.64 292.79 71.23 303.07 75.74 313.23C77.72 317.66 80.22 322.51 81.93 325.15C82.66 326.27 83.27 327.27 83.27 327.33C83.27 327.45 85.55 330.88 86.22 331.73C86.4 331.97 87.29 333.12 88.17 334.3C89.06 335.46 89.85 336.49 89.94 336.58C90.03 336.67 90.73 337.49 91.49 338.4C94.42 342.01 99.2 346.77 103.98 350.86C117.85 362.69 137.47 371.51 155.17 373.88C156.6 374.06 158.09 374.27 158.52 374.33C162.88 375.09 178.78 375.06 182.71 374.3C183.04 374.24 183.96 374.12 184.72 374.03C194.59 372.85 207.08 369 216.31 364.33C216.53 364.22 217.63 363.66 219.6 362.66C219.97 363.15 220.17 363.42 220.21 363.48C220.55 363.93 221.58 365.39 222.53 366.72C223.44 368.09 227.55 373.94 231.64 379.79C235.72 385.61 240.14 392.01 241.48 393.98C241.64 394.22 242.46 395.4 243.95 397.53C246.32 397.53 247.64 397.53 247.91 397.53C250.1 397.53 256.19 397.56 261.43 397.59C266.67 397.62 271.03 397.56 271.12 397.44C271.21 397.35 270.15 395.59 268.71 393.53C267.28 391.47 265.45 388.83 264.66 387.65C259.36 380 255.61 374.58 251.74 369.03C249.31 365.54 245.96 360.69 244.28 358.26C242.6 355.81 240.59 352.92 239.83 351.8C239.74 351.67 239.27 350.99 238.43 349.77C241.03 347.22 242.47 345.81 242.76 345.53C251.11 337.37 256.19 330.54 262.19 319.6C263.41 317.35 266.98 309.47 266.98 308.98C266.98 308.8 267.25 308.1 267.59 307.38C268.81 304.74 271.52 294.73 272.28 290.12C273.74 281.21 274.17 272.87 273.59 264.86C273.41 262.22 273.22 260.74 272.61 256.31C271.64 249.03 268.68 238.93 265.3 231.17C261.59 222.71 256.83 214.92 250.92 207.55C247.75 203.58 240.53 196.3 236.6 193.05C234.23 191.11 227.19 186.05 225.09 184.74C221.34 182.44 214.79 179.04 211.38 177.62C205.41 175.13 202.63 174.19 196.91 172.64C193.04 171.58 186.61 170.4 182.43 169.94C181.43 169.82 180.12 169.67 179.54 169.58C178.44 169.43 164.4 169.22 164.25 169.34C164.19 169.4 163.06 169.52 161.72 169.64ZM181.22 188.44C187.89 189.14 195.57 191.14 203 194.2C206.02 195.42 211.8 198.21 212.14 198.57C212.23 198.66 212.78 199.03 213.36 199.33C219.91 202.91 229.17 210.61 234.9 217.25C243.34 227.02 249.49 238.9 252.66 251.37C254.49 258.61 255.16 263.83 255.22 271.41C255.31 279.11 254.58 285.33 252.66 292.91C248.94 307.68 241.17 321.11 230.08 332.06C218.93 343.07 205.31 350.59 189.9 354.32C188.13 354.71 186.27 355.14 185.79 355.2C185.27 355.26 184.38 355.38 183.81 355.5C178.47 356.41 168.69 356.75 162.75 356.2C158.79 355.84 153.34 354.9 149.26 353.86C140.51 351.62 131.37 347.56 123.79 342.49C121.53 340.98 119.4 339.52 119.06 339.25C112.21 333.67 108.52 330.09 104.2 324.78C99.63 319.17 94.51 310.38 91.71 303.37C90.64 300.67 88.57 294.43 88.32 293.12C88.26 292.76 88.05 291.91 87.9 291.24C87.38 289.36 86.56 284.54 86.1 280.78C85.8 278.26 85.8 266.77 86.07 263.8C87.08 253.73 90.49 242.21 94.94 233.78C100.91 222.44 108.49 213.31 118.15 205.76C120.68 203.76 126.92 199.51 127.29 199.51C127.41 199.51 127.87 199.27 128.3 198.94C129.64 198 135.61 195.11 138.87 193.81C145.02 191.38 152.58 189.32 157.48 188.72C158.18 188.66 159.07 188.5 159.43 188.44C159.83 188.38 161.32 188.23 162.75 188.11C164.19 187.99 165.43 187.87 165.46 187.81C165.65 187.68 177.77 187.93 178.63 188.11C179.05 188.17 180.21 188.32 181.22 188.44ZM461.2 169.61C456.87 169.94 455.17 170.16 451.91 170.76C447.61 171.55 446.52 171.76 443.99 172.37C437.8 173.86 429.27 177.07 422.66 180.44C413.12 185.26 404.75 191.29 397.01 198.9C393.75 202.12 392.13 203.88 388.26 208.46C384.97 212.37 379.25 221.53 376.35 227.5C374.8 230.75 371.9 237.69 371.66 238.78C371.63 238.93 371.17 240.45 370.62 242.12C369.07 247.15 367.52 254.1 367.03 258.34C366.91 259.43 366.79 260.65 366.72 261.07C366.02 266.26 366.05 279.63 366.72 283.39C366.79 283.72 366.94 284.78 367.03 285.79C367.27 287.88 368.55 294.61 369.22 297.31C369.8 299.61 372.03 306.71 372.54 307.92C372.76 308.41 373.46 310.14 374.1 311.71C375.41 314.99 378.67 321.48 380.56 324.57C381.26 325.69 381.84 326.75 381.84 326.91C381.84 327.06 381.96 327.18 382.11 327.18C382.26 327.18 382.51 327.45 382.6 327.79C382.69 328.12 382.96 328.57 383.15 328.76C383.36 328.97 383.91 329.76 384.42 330.51C387.32 334.91 391.77 340.16 396.73 345.1C396.99 345.36 398.27 346.63 400.57 348.92C399.38 350.65 398.72 351.61 398.59 351.8C394.91 357.2 386.25 369.69 384.88 371.63C383.36 373.79 380.07 378.52 374.16 387.07C371.96 390.22 369.28 394.14 368.19 395.71C367.09 397.29 365.02 400.29 363.59 402.38C362.15 404.48 360.72 406.54 360.42 406.93C359.93 407.57 348.99 423.4 339.46 437.26C337.9 439.5 335.95 442.29 335.13 443.47C334.31 444.63 332.72 446.96 331.57 448.63C330.41 450.3 329.19 452.06 328.82 452.57C328.46 453.06 326.2 456.3 323.83 459.79C321.42 463.25 319.41 466.16 319.32 466.22C319.23 466.31 318.34 465.22 317.37 463.79C316.39 462.37 314.66 459.88 313.53 458.24C312.37 456.63 311.31 455.09 311.15 454.85C310.97 454.6 308.66 451.24 305.97 447.42C303.29 443.56 301.01 440.23 300.89 439.99C300.76 439.74 300.55 439.38 300.4 439.23C300.09 438.89 295.56 432.31 290.5 424.98C288.61 422.22 286.96 419.97 286.84 419.94C286.35 419.88 259.67 419.82 259.67 419.88C259.67 419.97 263.35 425.34 265.91 428.92C268.68 432.83 270.39 435.32 270.79 435.95C270.97 436.23 271.24 436.68 271.46 436.92C271.85 437.44 274.96 441.9 280.69 450.15C282.61 452.94 284.34 455.39 284.56 455.6C284.77 455.82 285.17 456.39 285.47 456.91C285.78 457.42 290.13 463.73 295.16 470.89C305.27 485.35 308.23 489.6 310.73 493.21C311.67 494.54 313.23 496.78 314.23 498.21C318.01 503.61 319.08 505.28 318.86 505.61C318.25 506.67 319.47 505 323.25 499.57C325.56 496.24 328.28 492.36 329.28 490.93C330.26 489.51 331.63 487.54 332.33 486.54C337.14 479.59 358.71 448.69 362.7 443.02C363.86 441.35 374.68 425.82 378.64 420.12C379.34 419.12 381.62 415.85 383.72 412.85C385.83 409.84 388.45 406.08 389.54 404.51C390.64 402.93 391.83 401.2 392.19 400.72C392.56 400.2 394.72 397.11 397.01 393.83C400.63 388.62 404.08 383.7 414.07 369.36C415.32 367.6 416.93 365.21 417.72 364.08C418.49 362.96 419.19 362.08 419.28 362.11C419.37 362.17 421.59 363.23 424.18 364.51C430.03 367.39 435.46 369.42 442.92 371.57C446.64 372.64 450.96 373.48 455.41 374.03C456.26 374.15 457.27 374.27 457.7 374.36C461.96 375.09 477.1 375.06 481.61 374.33C483.5 374.03 484.38 373.88 485.88 373.73C486.73 373.61 487.64 373.45 487.92 373.39C488.22 373.3 488.83 373.18 489.29 373.09C491.15 372.79 494.53 371.97 497.58 371.12C499.34 370.6 500.96 370.18 501.11 370.12C501.29 370.09 501.57 370 501.72 369.88C501.9 369.78 502.73 369.48 503.55 369.24C505.8 368.51 507.36 367.94 509.28 367.09C510.22 366.66 511.04 366.3 511.16 366.3C511.38 366.3 518.08 362.99 519.69 362.05C530.42 355.99 539.16 348.92 547.48 339.61C551.01 335.64 556.22 328.48 558.42 324.6C563.35 315.78 565.55 310.92 567.92 303.53C569.69 298.07 571.27 291.21 571.79 286.85C571.88 286.27 572.01 285.36 572.1 284.88C572.49 282.33 572.71 278.17 572.71 272.29C572.71 263.71 572.4 260.43 570.88 251.82C570.79 251.31 570.18 248.85 569.51 246.36C563.38 222.8 549.34 202.51 529.29 188.23C515.37 178.34 497.33 171.46 481.31 169.94C480.12 169.82 478.78 169.67 478.26 169.58C477.35 169.43 463.88 169.22 463.73 169.34C463.67 169.4 462.54 169.52 461.2 169.61ZM480.55 188.44C495.44 190.26 510.65 196.75 522.74 206.46C525.18 208.43 525.15 208.4 528.1 211.22C533.34 216.25 536.54 220.07 540.69 226.35C546.57 235.2 551.17 246.7 552.87 256.67C553.91 262.77 554.12 265.29 554.12 272.14C554.12 279.14 553.88 282.03 552.87 287.45C550.25 301.71 544.04 314.78 534.32 326.54C532.37 328.91 527.16 334.12 525.03 335.85C524.45 336.34 523.69 336.97 523.35 337.28C522.19 338.34 518.45 341.04 515.73 342.8C514.24 343.77 512.66 344.8 512.23 345.07C510.98 345.89 504.77 348.92 501.93 350.1C498.73 351.41 492.58 353.5 490.29 354.02C490.2 354.02 489.59 354.17 488.92 354.32C488.25 354.47 487.64 354.59 487.55 354.62C487.46 354.65 486.79 354.77 486.03 354.9C485.27 355.05 484.38 355.2 484.05 355.26C476.74 356.68 464.49 356.87 457.39 355.68C456.48 355.53 455.32 355.35 454.8 355.26C445.17 353.74 433.84 349.44 424.94 343.92C422.51 342.4 418.18 339.46 417.79 339.01C417.69 338.91 416.6 338.03 415.35 337.03C414.1 336.03 411.48 333.64 409.56 331.73C397.56 319.78 389.6 304.95 386.25 288.3C385.19 282.84 384.76 278.23 384.76 271.84C384.76 265.19 385.19 261.31 386.86 252.88C387.68 248.73 390.37 241.24 393.17 235.36C395.55 230.35 400.63 222.32 403.31 219.34C403.5 219.16 404.23 218.25 404.96 217.37C408.62 212.98 416.02 206.3 421.23 202.73C433.14 194.54 448.13 189.11 461.53 188.11C463.03 188.02 464.31 187.87 464.34 187.84C464.52 187.68 476.65 187.93 477.96 188.11C478.63 188.2 479.78 188.35 480.55 188.44Z" id="a1yAgLoinZ"></path><linearGradient id="gradienta5RiwPNky" gradientUnits="userSpaceOnUse" x1="485.37" y1="154.51" x2="197.36" y2="474.47"><stop style="stop-color: #ffffff;stop-opacity: 1" offset="0%"></stop><stop style="stop-color: #b3b2b2;stop-opacity: 1" offset="100%"></stop></linearGradient></defs><g><g><g><use xlink:href="#j20aOVj2QF" opacity="1" fill="url(#gradientc1jDw4kttE)"></use></g><g><use xlink:href="#a1yAgLoinZ" opacity="1" fill="url(#gradienta5RiwPNky)"></use><g><use xlink:href="#a1yAgLoinZ" opacity="1" fill-opacity="0" stroke="#000000" stroke-width="1" stroke-opacity="0"></use></g></g></g></g></svg>